<svg xmlns="http://www.w3.org/2000/svg" width="500" height="500" viewBox="0 0 500 500" version="1.1"><path d="M 162.250 96.716 C 163.762 96.945, 166.238 96.945, 167.750 96.716 C 169.262 96.487, 168.025 96.300, 165 96.300 C 161.975 96.300, 160.738 96.487, 162.250 96.716 M 188.500 104.993 C 190.376 105.806, 190.354 105.864, 188.143 105.930 C 186.473 105.980, 185.954 106.437, 186.362 107.500 C 186.706 108.396, 186.370 109, 185.528 109 C 184.752 109, 183.843 109.445, 183.507 109.989 C 183.157 110.555, 183.558 110.723, 184.448 110.382 C 185.302 110.054, 186 110.213, 186 110.735 C 186 111.257, 187.912 112.238, 190.250 112.916 C 201.626 116.216, 224 127.546, 224 130.006 C 224 130.507, 221.045 129.591, 217.434 127.970 C 185.428 113.610, 146.475 110.044, 115.577 118.644 C 96.029 124.085, 81.767 131.177, 69.925 141.345 C 54.982 154.176, 42.580 172.594, 35.874 191.914 C 33.352 199.179, 34.067 199.389, 36.979 192.238 C 43.668 175.811, 54.001 160.965, 68.092 147.533 C 73.267 142.602, 77.500 138.750, 77.500 138.973 C 77.500 139.197, 80.875 137.398, 85 134.974 C 89.125 132.551, 95.978 129.156, 100.229 127.430 C 104.480 125.704, 107.780 124.113, 107.563 123.896 C 107.346 123.678, 108.257 123.435, 109.588 123.356 C 110.919 123.276, 112.793 122.876, 113.754 122.467 C 114.714 122.057, 116.175 121.620, 117 121.494 C 117.825 121.369, 122.550 120.447, 127.500 119.446 C 138.206 117.280, 162.037 116.991, 174.737 118.872 C 204.808 123.326, 236.060 137.269, 265.500 159.367 C 284.274 173.459, 323.549 209.303, 322.346 211.249 C 321.980 211.841, 322.162 212.018, 322.758 211.649 C 323.345 211.287, 324.798 212.230, 325.987 213.745 C 327.176 215.260, 327.804 215.825, 327.382 215 C 326.724 213.712, 326.854 213.693, 328.297 214.863 C 329.222 215.613, 329.686 216.738, 329.329 217.363 C 328.972 217.988, 329.048 218.166, 329.498 217.759 C 330.985 216.411, 333.046 219.045, 332.014 220.974 C 330.762 223.314, 331.790 224.183, 334.252 222.865 C 335.686 222.097, 336.052 222.107, 335.562 222.900 C 335.188 223.505, 335.387 224, 336.004 224 C 336.621 224, 337.046 224.787, 336.948 225.750 C 336.628 228.892, 336.982 230.129, 338.016 229.490 C 338.575 229.144, 338.746 228.398, 338.396 227.831 C 337.994 227.182, 338.522 227.209, 339.824 227.906 C 342.529 229.353, 343.967 231.585, 341.612 230.681 C 340.668 230.319, 340.134 230.408, 340.424 230.878 C 340.715 231.348, 340.063 232.538, 338.976 233.521 C 335.969 236.243, 336.607 236.934, 340.500 235.170 C 342.425 234.297, 344 233.201, 344 232.733 C 344 232.265, 344.450 232.160, 345 232.500 C 345.550 232.840, 346 233.568, 346 234.118 C 346 234.668, 345.492 234.804, 344.870 234.420 C 344.188 233.998, 343.921 234.264, 344.197 235.091 C 344.448 235.844, 343.745 237.195, 342.635 238.094 C 340.632 239.717, 340.640 239.764, 343.869 244.795 C 345.964 248.060, 349.399 251.399, 353.528 254.181 C 357.053 256.557, 359.951 258.972, 359.968 259.549 C 359.986 260.126, 361.529 261.151, 363.399 261.827 C 365.640 262.638, 367.008 263.898, 367.418 265.528 C 367.759 266.888, 368.480 268, 369.019 268 C 369.559 268, 370 268.900, 370 270 C 370 271.100, 370.477 272, 371.059 272 C 371.641 272, 371.840 272.450, 371.500 273 C 371.160 273.550, 369.982 274, 368.882 274 C 367.782 274, 367.131 274.403, 367.435 274.895 C 367.740 275.388, 367.279 276.063, 366.412 276.395 C 364.206 277.242, 363.787 277.154, 364.505 275.992 C 364.857 275.422, 363.991 275.502, 362.509 276.178 L 359.890 277.371 362.195 278.650 C 364.879 280.140, 367.214 280.431, 365 279 C 363.951 278.322, 363.885 278.026, 364.781 278.015 C 365.486 278.007, 366.313 278.653, 366.620 279.452 C 367.346 281.344, 373.182 283.251, 375.511 282.357 C 376.863 281.839, 377.118 282, 376.508 282.988 C 375.895 283.979, 376.221 284.175, 377.796 283.764 C 378.955 283.460, 380.061 283.682, 380.252 284.256 C 380.443 284.829, 382.672 285.344, 385.204 285.399 C 387.736 285.455, 389.558 285.906, 389.251 286.402 C 388.934 286.915, 390.485 287.064, 392.847 286.747 C 395.644 286.372, 396.786 286.537, 396.345 287.251 C 395.888 287.990, 399.759 288.134, 409.094 287.725 C 424.563 287.046, 435.903 284.238, 447.463 278.224 C 457.203 273.157, 471.079 259.195, 476.394 249.113 C 480.877 240.610, 481.453 237.588, 481.462 222.500 C 481.470 209.779, 478.462 197.348, 472.023 183.500 C 463.167 164.450, 447.537 150.956, 426.795 144.452 C 423.657 143.468, 421.313 142.302, 421.586 141.861 C 421.859 141.420, 420.938 140.772, 419.541 140.421 C 418.143 140.070, 417 139.307, 417 138.725 C 417 138.143, 416.737 137.930, 416.415 138.251 C 416.094 138.573, 414.962 138.092, 413.901 137.183 C 412.001 135.556, 412.005 135.505, 414.156 133.882 L 416.341 132.234 413.171 131.537 C 409.939 130.828, 409.581 129.917, 409.665 122.619 C 409.685 120.888, 409.044 120.781, 401.593 121.273 C 396.869 121.585, 394.749 121.480, 396.500 121.022 C 398.150 120.590, 403.550 120.134, 408.500 120.009 C 416.956 119.795, 417.228 119.723, 413 118.826 C 407.496 117.658, 387.348 118.466, 385.590 119.925 C 384.889 120.507, 384.066 120.733, 383.761 120.428 C 382.985 119.651, 367.663 125.022, 366.765 126.385 C 366.361 126.998, 366.024 127.144, 366.015 126.708 C 365.993 125.579, 356.844 130.893, 354.750 133.251 C 353.788 134.335, 353 134.893, 353 134.492 C 353 131.869, 336.341 147.848, 329.012 157.500 C 326.507 160.800, 322.218 166.298, 319.481 169.718 L 314.504 175.936 309.797 171.300 C 307.208 168.750, 305.367 166.177, 305.705 165.582 C 306.044 164.987, 305.962 164.824, 305.524 165.219 C 305.087 165.615, 300.402 161.842, 295.114 156.835 C 284.968 147.228, 261.184 128.768, 259.942 129.536 C 259.539 129.785, 258.941 129.288, 258.612 128.431 C 258.283 127.574, 257.608 127.124, 257.112 127.431 C 256.616 127.738, 255.941 127.288, 255.612 126.431 C 255.283 125.574, 254.561 125.153, 254.007 125.496 C 253.453 125.838, 253 125.653, 253 125.085 C 253 123.787, 247.475 120.858, 246.627 121.707 C 246.282 122.051, 246 121.733, 246 121 C 246 120.267, 245.707 119.960, 245.349 120.318 C 244.991 120.676, 244.161 120.235, 243.505 119.338 C 242.849 118.440, 241.004 117.660, 239.406 117.603 C 237.705 117.543, 236.599 116.997, 236.738 116.286 C 236.875 115.587, 236.348 115.313, 235.496 115.640 C 234.659 115.961, 233.751 115.514, 233.404 114.609 C 233.066 113.731, 232.388 113.260, 231.895 113.565 C 231.403 113.869, 231 113.641, 231 113.059 C 231 112.477, 230.564 112, 230.031 112 C 229.499 112, 229.358 112.787, 229.719 113.750 C 230.291 115.278, 230.162 115.327, 228.698 114.137 C 227.776 113.387, 227.328 112.262, 227.703 111.637 C 228.207 110.795, 228.009 110.790, 226.942 111.614 C 225.440 112.776, 220.797 112.484, 218.077 111.058 C 215.557 109.737, 196.974 105.272, 191.500 104.673 C 188.250 104.318, 187.200 104.429, 188.500 104.993 M 366.750 110.203 C 364.688 110.750, 362.999 111.491, 362.998 111.849 C 362.996 112.207, 361.759 112.553, 360.248 112.618 C 358.736 112.682, 355.925 113.393, 354 114.197 L 350.500 115.660 354.151 115.580 C 356.159 115.536, 357.547 115.086, 357.237 114.580 C 356.926 114.074, 357.408 113.943, 358.307 114.288 C 359.822 114.869, 371 110.663, 371 109.513 C 371 109.231, 370.887 109.047, 370.750 109.103 C 370.613 109.160, 368.813 109.655, 366.750 110.203 M 341 119.500 C 339.625 120.286, 338.950 120.929, 339.500 120.929 C 340.050 120.929, 341.625 120.286, 343 119.500 C 344.375 118.714, 345.050 118.071, 344.500 118.071 C 343.950 118.071, 342.375 118.714, 341 119.500 M 225 130.893 C 225 131.384, 225.600 132.016, 226.333 132.298 C 227.067 132.579, 227.667 132.177, 227.667 131.405 C 227.667 130.632, 227.067 130, 226.333 130 C 225.600 130, 225 130.402, 225 130.893 M 460.958 135.250 C 465.102 139.665, 466 140.459, 466 139.708 C 466 139.548, 463.863 137.410, 461.250 134.958 L 456.500 130.500 460.958 135.250 M 309.946 147.750 L 306.500 151.500 310.250 148.054 C 312.313 146.158, 314 144.471, 314 144.304 C 314 143.540, 313.154 144.260, 309.946 147.750 M 318.469 150.250 L 312.500 156.500 318.750 150.531 C 324.556 144.987, 325.458 144, 324.719 144 C 324.564 144, 321.751 146.813, 318.469 150.250 M 297.648 147.845 C 295.076 150.530, 295.023 150.767, 296.711 152.047 C 298.237 153.204, 298.317 153.198, 297.252 152.004 C 296.235 150.863, 296.501 150.086, 298.689 147.802 C 300.166 146.261, 301.149 145, 300.874 145 C 300.599 145, 299.147 146.280, 297.648 147.845 M 357 158.500 C 356.315 159.325, 355.336 160, 354.824 160 C 351.690 160, 326.958 183.673, 326.281 187.321 C 326.161 187.969, 329.831 192.528, 334.436 197.451 C 342.151 205.697, 342.956 206.288, 344.655 204.951 C 346.335 203.630, 346.381 203.651, 345.173 205.195 C 344.020 206.669, 344.282 207.292, 347.173 209.958 C 356.475 218.536, 371.958 226.850, 383.770 229.611 C 394.107 232.028, 408.999 231.170, 415.500 227.783 C 421.858 224.471, 426.290 219.840, 429.167 213.500 C 432.403 206.368, 432.475 191.611, 429.306 184.750 C 426.944 179.635, 426.902 179.684, 433.361 179.988 C 436.328 180.127, 437.034 179.864, 436.409 178.853 C 435.962 178.129, 436.872 178.541, 438.433 179.768 C 439.993 180.996, 442.139 182, 443.200 182 C 445.715 182, 458.600 188.075, 462.677 191.184 C 467.595 194.933, 473.896 202.890, 477.180 209.500 C 479.325 213.816, 480.022 214.658, 479.663 212.500 C 476.751 194.983, 466.253 180.676, 450.664 172.982 C 438.902 167.177, 410.296 161.361, 412.633 165.250 C 413.143 166.099, 412.842 166.060, 411.692 165.128 C 410.434 164.107, 407.756 163.878, 401.250 164.232 C 391.197 164.779, 384.234 167.110, 375.192 172.954 C 371.883 175.093, 368.874 176.541, 368.505 176.171 C 368.135 175.802, 367.983 176.175, 368.167 177 C 368.376 177.944, 367.759 178.500, 366.500 178.501 C 365.400 178.502, 364.500 178.979, 364.500 179.560 C 364.500 180.142, 361.852 183.516, 358.614 187.059 C 355.377 190.602, 353.690 192.202, 354.864 190.615 C 357.457 187.112, 357.579 185.863, 355.250 186.666 C 353.664 187.212, 353.650 187.139, 355.096 185.885 C 356.948 184.277, 359.036 179.179, 358.735 177 C 358.476 175.120, 359.921 161.107, 360.618 158.750 C 361.263 156.566, 358.749 156.392, 357 158.500 M 167.250 159.689 C 168.213 159.941, 169.787 159.941, 170.750 159.689 C 171.713 159.438, 170.925 159.232, 169 159.232 C 167.075 159.232, 166.287 159.438, 167.250 159.689 M 153.250 168.728 C 155.313 168.944, 158.688 168.944, 160.750 168.728 C 162.813 168.513, 161.125 168.336, 157 168.336 C 152.875 168.336, 151.188 168.513, 153.250 168.728 M 420 171.500 C 421.866 173.425, 423.617 175, 423.892 175 C 424.167 175, 422.866 173.425, 421 171.500 C 419.134 169.575, 417.383 168, 417.108 168 C 416.833 168, 418.134 169.575, 420 171.500 M 162.250 169.732 C 156.995 170.206, 156.724 171.706, 161.750 172.506 C 168.446 173.571, 174.446 175.315, 176.953 176.923 L 179.407 178.497 176.453 179.204 C 174.662 179.634, 175.467 179.717, 178.500 179.415 C 182.335 179.033, 183.150 179.178, 182 180.037 C 180.796 180.936, 181.035 181.071, 183.215 180.724 C 184.708 180.486, 186.058 180.563, 186.215 180.895 C 186.568 181.644, 208.210 187.124, 208.736 186.597 C 209.206 186.127, 199.266 180.099, 192.500 176.752 C 185.310 173.194, 174.206 169.713, 171.940 170.306 C 170.871 170.585, 170.249 170.405, 170.558 169.907 C 171.114 169.007, 170.452 168.993, 162.250 169.732 M 156.280 178.736 C 158.909 178.943, 162.959 178.940, 165.280 178.731 C 167.601 178.521, 165.450 178.352, 160.500 178.355 C 155.550 178.358, 153.651 178.530, 156.280 178.736 M 106.462 189.250 L 101.500 194.500 106.750 189.538 C 111.628 184.926, 112.459 184, 111.712 184 C 111.554 184, 109.192 186.363, 106.462 189.250 M 488.349 203 C 488.349 207.675, 488.522 209.588, 488.732 207.250 C 488.943 204.912, 488.943 201.088, 488.732 198.750 C 488.522 196.412, 488.349 198.325, 488.349 203 M 93.405 207.845 C 93.797 208.480, 93.690 209, 93.166 209 C 92.642 209, 91.930 209.739, 91.583 210.643 C 90.564 213.300, 91.596 213.265, 93.353 210.583 C 94.522 208.800, 94.657 207.906, 93.834 207.398 C 93.130 206.962, 92.965 207.134, 93.405 207.845 M 252.292 226.806 C 248.878 233.788, 243.525 243.775, 240.396 249 C 237.267 254.225, 234.744 259.279, 234.790 260.230 C 234.835 261.182, 234.382 262.264, 233.782 262.635 C 233.129 263.038, 232.977 262.846, 233.405 262.155 C 233.797 261.520, 233.930 261, 233.701 261 C 233.471 261, 231.692 263.396, 229.748 266.325 C 226.808 270.752, 226.518 271.628, 228.025 271.517 C 229.984 271.372, 233.394 267.492, 242 255.615 C 247.920 247.445, 251.684 244.385, 247.983 250.750 C 246.195 253.824, 246.152 254.074, 247.740 252.138 C 248.806 250.838, 253.439 243.017, 258.036 234.758 L 266.393 219.740 263.181 216.870 C 261.414 215.292, 259.638 214.025, 259.234 214.056 C 258.830 214.086, 255.707 219.824, 252.292 226.806 M 9.232 239 C 9.232 240.925, 9.438 241.713, 9.689 240.750 C 9.941 239.787, 9.941 238.213, 9.689 237.250 C 9.438 236.287, 9.232 237.075, 9.232 239 M 281.771 243.924 C 275.159 259.248, 250.613 291.285, 237.906 301.176 C 236.033 302.634, 232.925 305.293, 231 307.085 C 229.075 308.878, 227.373 310.243, 227.218 310.119 C 227.063 309.995, 224.314 311.487, 221.110 313.433 C 208.515 321.084, 189.419 328, 180.888 328 C 178.750 328, 177 328.398, 177 328.885 C 177 330.414, 190.101 328.931, 200 326.281 C 205.225 324.882, 210.266 323.700, 211.202 323.654 C 212.139 323.609, 212.694 323.361, 212.436 323.103 C 212.178 322.845, 215.012 321.017, 218.734 319.041 C 222.455 317.064, 226.850 314.618, 228.500 313.605 L 231.500 311.763 229 313.881 L 226.500 316 229 318.119 L 231.500 320.237 228.877 318.679 C 226.374 317.192, 222 317.390, 222 318.992 C 222 319.409, 223.275 320.005, 224.833 320.317 C 227.918 320.934, 228.774 323.571, 225.889 323.571 C 224.663 323.571, 224.407 323.214, 225.064 322.423 C 225.752 321.594, 225.319 321.407, 223.509 321.754 C 221.024 322.229, 219.758 326, 222.083 326 C 224.110 326, 222.429 328.240, 218.802 330.373 C 216.814 331.543, 213.024 333.813, 210.381 335.417 C 207.738 337.021, 204.996 338.333, 204.288 338.333 C 203.579 338.333, 203 338.666, 203 339.073 C 203 340.177, 182.099 348.816, 169.216 353.037 C 163.010 355.071, 157.648 357.019, 157.299 357.367 C 156.298 358.368, 176.817 358.088, 184 357.003 C 195.553 355.256, 202.364 353.677, 209 351.204 C 212.575 349.872, 216.510 348.784, 217.743 348.785 C 218.977 348.787, 219.758 348.418, 219.479 347.966 C 219.012 347.211, 221.082 346.161, 223.500 345.927 C 224.050 345.874, 225.043 345.379, 225.706 344.829 C 226.370 344.278, 227.412 344.137, 228.023 344.514 C 228.633 344.891, 229.748 344.368, 230.499 343.350 C 231.663 341.774, 232.060 341.707, 233.183 342.897 C 233.907 343.665, 234.034 344.036, 233.466 343.721 C 232.237 343.041, 225.763 348.430, 226.692 349.359 C 227.274 349.941, 225.561 350.395, 223.786 350.130 C 223.393 350.072, 223.313 350.653, 223.608 351.422 C 223.928 352.255, 223.308 353.085, 222.072 353.477 C 220.933 353.839, 220 354.581, 220 355.126 C 220 355.672, 219.550 355.840, 219 355.500 C 218.450 355.160, 218 355.320, 218 355.855 C 218 357.220, 206.750 363.359, 198.687 366.393 C 175.918 374.964, 147.331 373.344, 118 361.821 C 101.774 355.447, 80.698 342.515, 72 333.597 C 67.571 329.056, 62.160 325.507, 61.171 326.496 C 60.894 326.773, 61.179 327, 61.805 327 C 62.619 327, 62.752 329.354, 62.272 335.250 C 61.902 339.788, 61.577 345.820, 61.550 348.655 C 61.521 351.665, 61.154 353.330, 60.669 352.655 C 60.185 351.982, 60.063 352.546, 60.378 354.008 C 60.998 356.894, 60.516 357.790, 56.823 360.621 L 54.146 362.673 61.663 369.087 C 70.399 376.541, 82.608 384.725, 92.346 389.655 C 121.040 404.184, 162.652 407.020, 198.680 396.904 C 239.827 385.350, 263.816 364.019, 290.229 315.500 C 297.825 301.548, 306.310 283.690, 304.943 284.535 C 304.409 284.865, 303.994 283.250, 303.987 280.809 C 303.965 273.520, 300.407 258.750, 297.092 252.183 C 294.292 246.635, 286.956 238, 285.043 238 C 284.650 238, 283.177 240.666, 281.771 243.924 M 473.559 263.887 C 468.593 273.489, 451.574 286.802, 439.295 290.689 C 436.432 291.595, 434.302 292.680, 434.561 293.099 C 434.821 293.519, 434.575 294.144, 434.016 294.490 C 433.457 294.835, 433 294.641, 433 294.059 C 433 293.477, 432.298 293, 431.441 293 C 430.584 293, 430.156 293.443, 430.491 293.985 C 430.865 294.591, 429.829 294.776, 427.800 294.466 C 425.208 294.070, 424.929 294.165, 426.500 294.911 C 427.922 295.585, 428.066 295.899, 427 295.997 C 425.965 296.093, 426.150 296.451, 427.597 297.152 C 429.112 297.887, 431.157 297.734, 434.970 296.602 C 437.872 295.740, 440.711 295.321, 441.278 295.672 C 441.845 296.022, 442.017 295.837, 441.660 295.259 C 441.303 294.682, 441.760 293.922, 442.676 293.571 C 444.459 292.887, 446.248 294.789, 445.286 296.346 C 443.368 299.449, 452.791 292.192, 460.016 285 C 466.077 278.968, 469.664 274.373, 472.372 269.176 C 474.470 265.149, 475.953 261.619, 475.667 261.334 C 475.381 261.048, 474.432 262.197, 473.559 263.887 M 230.552 266.561 C 229.629 267.970, 229.015 269.501, 229.187 269.965 C 229.359 270.428, 230.278 269.276, 231.229 267.404 C 233.271 263.382, 232.921 262.946, 230.552 266.561 M 223 276 C 221.825 277.650, 221.089 279, 221.364 279 C 221.639 279, 222.825 277.650, 224 276 C 225.175 274.350, 225.911 273, 225.636 273 C 225.361 273, 224.175 274.350, 223 276 M 354.344 275.014 C 356.459 276.186, 358.446 276.887, 358.761 276.572 C 359.076 276.258, 358.782 276, 358.108 276 C 357.434 276, 357.100 275.646, 357.368 275.214 C 357.635 274.782, 357.099 274.397, 356.177 274.359 C 355.254 274.320, 353.600 273.973, 352.500 273.586 C 351.400 273.199, 352.230 273.841, 354.344 275.014 M 368.550 279.888 C 369.072 280.376, 370.625 281.070, 372 281.429 L 374.500 282.083 372 280.577 C 369.214 278.898, 367.023 278.460, 368.550 279.888 M 212.477 288.250 L 204.500 296.500 212.750 288.523 C 217.287 284.136, 221 280.424, 221 280.273 C 221 279.544, 219.885 280.588, 212.477 288.250 M 448.500 293 C 446.850 294.093, 445.950 294.980, 446.500 294.971 C 447.503 294.955, 452.940 291.058, 452 291.029 C 451.725 291.020, 450.150 291.907, 448.500 293 M 223 297.500 C 220.571 299.975, 218.809 302, 219.084 302 C 219.359 302, 221.571 299.975, 224 297.500 C 226.429 295.025, 228.191 293, 227.916 293 C 227.641 293, 225.429 295.025, 223 297.500 M 395.250 295.689 C 396.212 295.941, 397.788 295.941, 398.750 295.689 C 399.712 295.438, 398.925 295.232, 397 295.232 C 395.075 295.232, 394.288 295.438, 395.250 295.689 M 414.250 295.716 C 415.762 295.945, 418.238 295.945, 419.750 295.716 C 421.262 295.487, 420.025 295.300, 417 295.300 C 413.975 295.300, 412.738 295.487, 414.250 295.716 M 32.693 336.077 C 33.687 337.769, 35.139 339.682, 35.920 340.327 C 36.701 340.972, 36.079 339.587, 34.537 337.250 C 31.300 332.342, 30.024 331.530, 32.693 336.077 M 48 355.500 C 50.987 358.525, 53.657 361, 53.932 361 C 54.207 361, 51.987 358.525, 49 355.500 C 46.013 352.475, 43.343 350, 43.068 350 C 42.793 350, 45.013 352.475, 48 355.500 M 59.510 361.015 C 60.101 361.972, 59.875 362.166, 58.696 361.714 C 55.514 360.492, 56.137 362.728, 60.041 366.540 C 62.219 368.666, 64 369.865, 64 369.203 C 64 368.541, 63.598 368, 63.107 368 C 61.261 368, 60.998 364.719, 62.733 363.318 C 64.347 362.013, 64.311 361.981, 62.316 362.945 C 59.330 364.387, 58.532 364.268, 59.926 362.589 C 60.823 361.509, 60.815 361.004, 59.894 360.435 C 59.076 359.929, 58.953 360.115, 59.510 361.015" stroke="none" fill="#e827e5" fill-rule="evenodd"/><path d="M 145 97.090 C 121.054 99.358, 100.470 106.296, 81.500 118.492 C 58.573 133.231, 38.755 155.212, 26.096 179.941 C 19.395 193.031, 15.441 204.791, 12.329 220.884 C 8.976 238.217, 8.544 264.688, 11.364 280 C 16.321 306.925, 29.334 333.679, 47.197 353.674 C 51.214 358.170, 54.730 361.882, 55.010 361.924 C 55.291 361.966, 56.757 360.854, 58.267 359.453 C 60.409 357.467, 60.885 356.310, 60.426 354.203 C 60.090 352.659, 60.194 351.995, 60.669 352.655 C 61.154 353.330, 61.521 351.665, 61.550 348.655 C 61.577 345.820, 61.902 339.788, 62.272 335.250 C 62.752 329.354, 62.619 327, 61.805 327 C 61.179 327, 60.894 326.773, 61.171 326.496 C 62.160 325.507, 67.571 329.056, 72 333.597 C 80.698 342.515, 101.774 355.447, 118 361.821 C 147.331 373.344, 175.918 374.964, 198.687 366.393 C 206.750 363.359, 218 357.220, 218 355.855 C 218 355.320, 218.450 355.160, 219 355.500 C 219.550 355.840, 220 355.672, 220 355.126 C 220 354.581, 220.933 353.839, 222.072 353.477 C 223.308 353.085, 223.928 352.255, 223.608 351.422 C 223.313 350.653, 223.393 350.072, 223.786 350.130 C 225.561 350.395, 227.274 349.941, 226.692 349.359 C 225.763 348.430, 232.237 343.041, 233.466 343.721 C 234.034 344.036, 233.907 343.665, 233.183 342.897 C 232.060 341.707, 231.663 341.774, 230.499 343.350 C 229.748 344.368, 228.633 344.891, 228.023 344.514 C 227.412 344.137, 226.370 344.278, 225.706 344.829 C 225.043 345.379, 224.050 345.874, 223.500 345.927 C 221.082 346.161, 219.012 347.211, 219.479 347.966 C 219.758 348.418, 218.977 348.787, 217.743 348.785 C 216.510 348.784, 212.575 349.872, 209 351.204 C 202.364 353.677, 195.553 355.256, 184 357.003 C 176.817 358.088, 156.298 358.368, 157.299 357.367 C 157.648 357.019, 163.010 355.071, 169.216 353.037 C 182.099 348.816, 203 340.177, 203 339.073 C 203 338.666, 203.579 338.333, 204.288 338.333 C 204.996 338.333, 207.738 337.021, 210.381 335.417 C 213.024 333.813, 216.814 331.543, 218.802 330.373 C 222.429 328.240, 224.110 326, 222.083 326 C 219.758 326, 221.024 322.229, 223.509 321.754 C 225.319 321.407, 225.752 321.594, 225.064 322.423 C 224.407 323.214, 224.663 323.571, 225.889 323.571 C 228.774 323.571, 227.918 320.934, 224.833 320.317 C 223.275 320.005, 222 319.409, 222 318.992 C 222 317.390, 226.374 317.192, 228.877 318.679 L 231.500 320.237 229 318.119 L 226.500 316 229 313.881 L 231.500 311.763 228.500 313.605 C 226.850 314.618, 222.455 317.064, 218.734 319.041 C 215.012 321.017, 212.178 322.845, 212.436 323.103 C 212.694 323.361, 212.139 323.609, 211.202 323.654 C 210.266 323.700, 205.225 324.882, 200 326.281 C 190.101 328.931, 177 330.414, 177 328.885 C 177 328.398, 178.750 328, 180.888 328 C 189.419 328, 208.515 321.084, 221.110 313.433 C 224.314 311.487, 227.271 309.806, 227.680 309.697 C 228.089 309.589, 229.791 308.224, 231.462 306.663 C 233.133 305.103, 236.033 302.634, 237.906 301.176 C 250.613 291.285, 275.159 259.248, 281.771 243.924 C 283.177 240.666, 284.650 238, 285.043 238 C 286.956 238, 294.292 246.635, 297.092 252.183 C 300.434 258.802, 303.965 273.536, 303.987 280.950 C 303.995 283.616, 304.360 285.019, 304.897 284.450 C 305.390 283.927, 308.617 277.200, 312.068 269.500 C 315.519 261.800, 318.675 255.113, 319.081 254.640 C 319.487 254.167, 321.773 255.115, 324.160 256.747 C 339.844 267.468, 355.178 275.626, 357.245 274.349 C 357.830 273.987, 358.037 274.131, 357.705 274.668 C 357.373 275.206, 359.328 276.587, 362.050 277.737 C 367.353 279.977, 368.689 279.949, 364.373 277.688 C 362.170 276.533, 362.017 276.207, 363.425 275.667 C 364.549 275.236, 364.867 275.406, 364.388 276.181 C 363.903 276.966, 364.235 277.124, 365.418 276.670 C 366.378 276.301, 367.378 276, 367.641 276 C 367.903 276, 367.840 275.550, 367.500 275 C 367.160 274.450, 367.782 274, 368.882 274 C 369.982 274, 371.160 273.550, 371.500 273 C 371.840 272.450, 371.641 272, 371.059 272 C 370.477 272, 370 271.100, 370 270 C 370 268.900, 369.559 268, 369.019 268 C 368.480 268, 367.759 266.888, 367.418 265.528 C 367.008 263.898, 365.640 262.638, 363.399 261.827 C 361.529 261.151, 359.986 260.126, 359.968 259.549 C 359.951 258.972, 357.053 256.557, 353.528 254.181 C 349.399 251.399, 345.964 248.060, 343.869 244.795 C 340.640 239.764, 340.632 239.717, 342.635 238.094 C 343.745 237.195, 344.448 235.844, 344.197 235.091 C 343.921 234.264, 344.188 233.998, 344.870 234.420 C 345.492 234.804, 346 234.668, 346 234.118 C 346 233.568, 345.550 232.840, 345 232.500 C 344.450 232.160, 344 232.265, 344 232.733 C 344 233.201, 342.425 234.297, 340.500 235.170 C 336.607 236.934, 335.969 236.243, 338.976 233.521 C 340.063 232.538, 340.715 231.348, 340.424 230.878 C 340.134 230.408, 340.668 230.319, 341.612 230.681 C 343.967 231.585, 342.529 229.353, 339.824 227.906 C 338.522 227.209, 337.994 227.182, 338.396 227.831 C 338.746 228.398, 338.575 229.144, 338.016 229.490 C 336.982 230.129, 336.628 228.892, 336.948 225.750 C 337.046 224.787, 336.621 224, 336.004 224 C 335.387 224, 335.188 223.505, 335.562 222.900 C 336.052 222.107, 335.686 222.097, 334.252 222.865 C 331.790 224.183, 330.762 223.314, 332.014 220.974 C 333.046 219.045, 330.985 216.411, 329.498 217.759 C 329.048 218.166, 328.972 217.988, 329.329 217.363 C 329.686 216.738, 329.222 215.613, 328.297 214.863 C 326.854 213.693, 326.724 213.712, 327.382 215 C 327.804 215.825, 327.176 215.260, 325.987 213.745 C 324.798 212.230, 323.345 211.287, 322.758 211.649 C 322.162 212.018, 321.980 211.841, 322.346 211.249 C 323.549 209.303, 284.274 173.459, 265.500 159.367 C 236.060 137.269, 204.808 123.326, 174.737 118.872 C 162.037 116.991, 138.206 117.280, 127.500 119.446 C 122.550 120.447, 117.825 121.369, 117 121.494 C 116.175 121.620, 114.714 122.057, 113.754 122.467 C 112.793 122.876, 110.919 123.276, 109.588 123.356 C 108.257 123.435, 107.346 123.678, 107.563 123.896 C 107.780 124.113, 104.480 125.704, 100.229 127.430 C 95.978 129.156, 89.125 132.551, 85 134.974 C 80.875 137.398, 77.500 139.197, 77.500 138.973 C 77.500 138.750, 73.267 142.602, 68.092 147.533 C 54.001 160.965, 43.668 175.811, 36.979 192.238 C 34.067 199.389, 33.352 199.179, 35.874 191.914 C 42.580 172.594, 54.982 154.176, 69.925 141.345 C 78.572 133.921, 86.276 129.345, 98.278 124.505 C 118.642 116.294, 135.953 113.382, 158.885 114.311 C 179.690 115.154, 198.812 119.615, 217.434 127.970 C 221.045 129.591, 224 130.507, 224 130.006 C 224 127.546, 201.626 116.216, 190.250 112.916 C 187.912 112.238, 186 111.257, 186 110.735 C 186 110.213, 185.302 110.054, 184.448 110.382 C 183.558 110.723, 183.157 110.555, 183.507 109.989 C 183.843 109.445, 184.752 109, 185.528 109 C 186.370 109, 186.706 108.396, 186.362 107.500 C 185.954 106.437, 186.473 105.980, 188.143 105.930 C 190.354 105.864, 190.376 105.806, 188.500 104.993 C 187.200 104.429, 188.250 104.318, 191.500 104.673 C 197.141 105.291, 215.591 109.754, 218.227 111.139 C 219.178 111.638, 221.501 112.173, 223.390 112.328 C 225.280 112.483, 227.613 113.260, 228.575 114.055 C 230.108 115.321, 230.265 115.314, 229.844 114 C 228.723 110.511, 198.490 100.800, 180.500 98.152 C 170.210 96.637, 154.684 96.172, 145 97.090 M 389.065 112.135 C 386.076 112.631, 379.584 114.426, 374.639 116.124 C 351.589 124.038, 335.832 133.860, 318.912 150.858 C 312.539 157.261, 306.825 163.440, 306.214 164.588 C 305.243 166.413, 305.695 167.260, 309.803 171.306 L 314.504 175.936 319.481 169.718 C 322.218 166.298, 326.507 160.800, 329.012 157.500 C 336.341 147.848, 353 131.869, 353 134.492 C 353 134.893, 353.788 134.335, 354.750 133.251 C 356.844 130.893, 365.993 125.579, 366.015 126.708 C 366.024 127.144, 366.361 126.998, 366.765 126.385 C 367.663 125.022, 382.985 119.651, 383.761 120.428 C 384.066 120.733, 384.889 120.507, 385.590 119.925 C 387.348 118.466, 407.496 117.658, 413 118.826 C 417.228 119.723, 416.956 119.795, 408.500 120.009 C 403.550 120.134, 398.150 120.590, 396.500 121.022 C 394.749 121.480, 396.869 121.585, 401.593 121.273 C 409.044 120.781, 409.685 120.888, 409.665 122.619 C 409.581 129.917, 409.939 130.828, 413.171 131.537 L 416.341 132.234 414.156 133.882 C 412.005 135.505, 412.001 135.556, 413.901 137.183 C 414.962 138.092, 416.094 138.573, 416.415 138.251 C 416.737 137.930, 417 138.143, 417 138.725 C 417 139.307, 418.143 140.070, 419.541 140.421 C 420.938 140.772, 421.859 141.420, 421.586 141.861 C 421.313 142.302, 423.657 143.468, 426.795 144.452 C 447.537 150.956, 463.167 164.450, 472.023 183.500 C 478.440 197.301, 481.467 209.778, 481.485 222.500 C 481.493 228.550, 481.176 234.850, 480.780 236.500 C 480.289 238.544, 480.710 238.066, 482.102 235 C 483.225 232.525, 485.060 226.675, 486.180 222 C 488.888 210.696, 488.346 189.619, 485.038 177.530 C 472.799 132.806, 432.009 105.012, 389.065 112.135 M 356.500 114.289 C 345.911 118.088, 335.299 122.807, 327.500 127.185 C 317.748 132.659, 303.197 143.068, 298.683 147.798 L 295.866 150.750 299.096 153.278 L 302.327 155.807 309.913 148.152 C 321.849 136.108, 335.648 126.185, 351.752 118.065 C 356.289 115.777, 360 113.702, 360 113.453 C 360 113.204, 359.887 113.048, 359.750 113.106 C 359.613 113.165, 358.150 113.697, 356.500 114.289 M 235 115.918 C 236.375 117.038, 238.137 117.966, 238.917 117.978 C 240.735 118.006, 240.280 117.631, 236 115.567 L 232.500 113.880 235 115.918 M 225 130.893 C 225 131.384, 225.600 132.016, 226.333 132.298 C 227.067 132.579, 227.667 132.177, 227.667 131.405 C 227.667 130.632, 227.067 130, 226.333 130 C 225.600 130, 225 130.402, 225 130.893 M 357 158.500 C 356.315 159.325, 355.336 160, 354.824 160 C 351.937 160, 327.659 182.931, 326.170 187.065 C 325.819 188.039, 341.861 206, 343.083 206 C 343.479 206, 346.659 201.903, 350.151 196.895 C 353.643 191.887, 357.850 186.431, 359.500 184.770 L 362.500 181.750 358.723 184.515 C 356.645 186.035, 354.658 186.991, 354.306 186.639 C 353.954 186.288, 354.203 186, 354.858 186 C 356.404 186, 358.217 181.482, 358.533 176.841 C 358.963 170.535, 360.123 160.575, 360.639 158.750 C 361.257 156.569, 358.746 156.396, 357 158.500 M 141.500 160.505 C 110.067 166.293, 86.268 188.749, 77.386 221 C 74.868 230.140, 74.801 253.929, 77.267 262.879 C 84.282 288.338, 99.302 306.723, 122.500 318.243 C 136.735 325.312, 141.905 326.506, 158 326.445 C 174.174 326.383, 180.529 325.116, 192.588 319.551 C 211.080 311.017, 225.948 297.686, 241.164 276 C 248.071 266.154, 261.782 242.937, 268.506 229.699 L 274.500 217.898 269.606 213.699 C 242.058 190.067, 212.401 171.149, 192.350 164.418 C 176.283 159.024, 157.424 157.573, 141.500 160.505 M 413.976 165.802 C 418.435 168.859, 422.668 172.891, 425.019 176.323 C 427.073 179.320, 427.875 179.714, 432.237 179.868 C 435.943 179.999, 436.955 179.735, 436.370 178.789 C 435.944 178.100, 436.872 178.541, 438.433 179.768 C 439.993 180.996, 442.139 182, 443.200 182 C 445.715 182, 458.600 188.075, 462.677 191.184 C 467.595 194.933, 473.896 202.890, 477.180 209.500 C 479.325 213.816, 480.022 214.658, 479.663 212.500 C 476.751 194.983, 466.253 180.676, 450.664 172.982 C 442.236 168.822, 422.893 163.945, 415.246 164.052 L 411.500 164.105 413.976 165.802 M 139.500 171.006 C 130.474 173.372, 126.160 175.236, 118.470 180.093 C 111.007 184.806, 99.567 196.691, 95.792 203.652 L 93.083 208.646 101.792 200.024 C 114.932 187.013, 127.363 181.351, 148.071 178.943 C 157.267 177.874, 168.481 178.066, 180 179.490 C 181.925 179.728, 182.600 179.662, 181.500 179.344 C 180.400 179.027, 178.375 177.992, 177 177.046 C 174.499 175.324, 168.800 173.628, 161.750 172.506 C 156.724 171.706, 156.995 170.206, 162.250 169.732 C 164.588 169.522, 162 169.309, 156.500 169.260 C 149.754 169.200, 144.222 169.768, 139.500 171.006 M 246.943 249.250 C 245.768 250.488, 242.737 254.425, 240.207 258 C 233.960 266.825, 229.899 271.464, 228.401 271.484 C 227.714 271.493, 225.715 273.525, 223.959 276 C 219.651 282.072, 208.619 293.307, 202.558 297.794 C 199.840 299.806, 194.440 303.139, 190.558 305.200 C 182.330 309.569, 182.513 309.919, 191.294 306.614 C 211.662 298.947, 223.355 288.622, 239.279 264.244 C 250.321 247.340, 252.148 243.765, 246.943 249.250 M 230.552 266.561 C 229.629 267.970, 229.015 269.501, 229.187 269.965 C 229.359 270.428, 230.278 269.276, 231.229 267.404 C 233.271 263.382, 232.921 262.946, 230.552 266.561 M 368.550 279.888 C 369.072 280.376, 370.625 281.070, 372 281.429 L 374.500 282.083 372 280.577 C 369.214 278.898, 367.023 278.460, 368.550 279.888 M 362.095 290.317 C 366.219 293.724, 384.167 301.834, 391.500 303.604 C 401.124 305.928, 418.524 305.983, 427 303.717 C 434.188 301.796, 446.122 296.190, 450 292.914 L 452.500 290.802 448.842 292.926 C 446.576 294.241, 445.046 294.638, 444.823 293.968 C 444.624 293.373, 443.686 293.183, 442.737 293.548 C 441.788 293.912, 441.303 294.682, 441.660 295.259 C 442.017 295.837, 441.845 296.022, 441.278 295.672 C 440.711 295.321, 437.920 295.725, 435.077 296.570 C 430.094 298.050, 424.302 297.668, 426.946 296.034 C 427.611 295.622, 421.708 295.504, 413.828 295.771 C 397.497 296.324, 386.979 295.188, 370.797 291.122 C 360.573 288.552, 359.881 288.488, 362.095 290.317 M 59.510 361.015 C 60.101 361.972, 59.875 362.166, 58.696 361.714 C 55.514 360.492, 56.137 362.728, 60.041 366.540 C 62.219 368.666, 64 369.865, 64 369.203 C 64 368.541, 63.598 368, 63.107 368 C 61.261 368, 60.998 364.719, 62.733 363.318 C 64.347 362.013, 64.311 361.981, 62.316 362.945 C 59.330 364.387, 58.532 364.268, 59.926 362.589 C 60.823 361.509, 60.815 361.004, 59.894 360.435 C 59.076 359.929, 58.953 360.115, 59.510 361.015" stroke="none" fill="#3a15c0" fill-rule="evenodd"/></svg>