<?xml version="1.0" standalone="no"?>
<!DOCTYPE svg PUBLIC "-//W3C//DTD SVG 20010904//EN"
 "http://www.w3.org/TR/2001/REC-SVG-20010904/DTD/svg10.dtd">
<svg version="1.0" xmlns="http://www.w3.org/2000/svg"
 width="600.000000pt" height="600.000000pt" viewBox="0 0 600.000000 600.000000"
 preserveAspectRatio="xMidYMid meet">
<metadata>
Created by potrace 1.10, written by Peter Selinger 2001-2011
</metadata>
<g transform="translate(0.000000,600.000000) scale(0.100000,-0.100000)"
fill="#000000" stroke="none">
<path d="M790 2145 c0 0 -1 -84 -3 -188 l-2 -187 133 0 c111 0 132 -2 132 -15
0 -9 9 -15 25 -15 22 0 25 4 25 35 l0 35 -135 0 -135 0 0 145 0 145 415 0 415
0 0 -145 0 -145 -130 0 -130 0 0 -35 c0 -28 4 -35 20 -35 11 0 20 7 20 15 0
13 22 15 135 15 l135 0 0 188 0 187 -460 0 c-253 0 -460 0 -460 0z"/>
<path d="M1760 1943 l0 -203 26 0 26 0 -4 180 -3 180 153 0 152 0 0 -180 c0
-173 1 -180 20 -180 19 0 20 7 20 203 l0 202 -195 0 -195 0 0 -202z"/>
<path d="M735 1687 c-56 -27 -119 -91 -143 -146 -25 -59 -20 -166 11 -227 47
-92 146 -154 247 -154 118 0 234 85 266 195 30 104 4 204 -71 280 -54 53 -91
68 -180 72 -69 3 -87 1 -130 -20z m223 -27 c151 -69 190 -287 70 -396 -107
-97 -250 -98 -347 -3 -54 52 -74 100 -74 179 0 100 46 173 138 219 54 27 155
27 213 1z"/>
<path d="M779 1564 c-65 -42 -89 -120 -56 -185 29 -57 77 -89 133 -89 36 0 51
6 84 36 72 66 76 156 9 220 -37 35 -128 45 -170 18z m146 -34 c55 -52 57 -132
3 -182 -86 -80 -223 14 -186 128 26 79 126 108 183 54z"/>
<path d="M2175 1696 c-39 -17 -70 -52 -90 -98 -12 -29 -15 -79 -15 -233 l0
-195 81 0 81 0 -4 65 c-3 62 -2 65 20 65 21 0 22 4 22 70 0 66 -1 70 -23 70
-21 0 -22 3 -17 51 6 62 32 87 56 55 11 -16 14 -58 14 -198 l0 -178 78 0 77 0
-2 187 c-2 104 -5 207 -8 230 -7 50 -37 91 -81 109 -42 18 -150 17 -189 0z
m191 -35 c55 -33 61 -70 56 -357 l-2 -101 -40 1 c-21 1 -43 5 -47 9 -4 5 -8
79 -8 167 0 141 -2 160 -19 179 -69 76 -148 -61 -81 -141 28 -33 26 -68 -6
-104 -11 -11 -19 -35 -19 -55 0 -19 -4 -39 -8 -46 -10 -16 -82 -9 -93 9 -5 7
-6 85 -3 173 7 183 21 231 76 265 45 27 150 28 194 1z"/>
<path d="M180 1625 l0 -75 60 0 60 0 0 -190 0 -190 80 0 80 0 0 190 0 190 60
0 60 0 0 75 0 75 -200 0 -200 0 0 -75z m368 2 c3 -39 0 -43 -49 -51 -15 -2
-36 -10 -48 -18 -20 -12 -21 -20 -21 -176 l0 -162 -25 -10 c-15 -6 -34 -6 -49
0 -25 9 -25 10 -28 174 -2 90 -6 168 -10 172 -4 4 -29 12 -55 19 -41 10 -48
16 -51 39 -7 57 -7 57 170 54 l163 -3 3 -38z"/>
<path d="M1132 1571 l69 -130 -52 -98 c-29 -54 -63 -115 -76 -135 l-23 -38 84
0 84 0 28 66 28 66 33 -66 33 -66 80 0 c44 0 80 3 80 7 0 3 -31 65 -69 138
l-70 131 18 30 c9 16 40 73 69 127 l52 97 -81 0 -80 0 -16 -37 c-8 -21 -20
-49 -25 -62 -8 -23 -11 -20 -38 37 l-29 62 -84 0 -85 0 70 -129z m102 55 c40
-73 68 -71 107 6 18 34 23 38 59 38 22 0 40 -4 40 -8 0 -5 -22 -52 -50 -104
-27 -53 -50 -103 -50 -112 0 -9 25 -65 54 -125 30 -60 52 -111 49 -115 -4 -3
-21 -6 -39 -6 -35 0 -56 16 -78 58 -8 15 -23 35 -33 45 -19 16 -20 16 -37 -1
-10 -9 -28 -35 -40 -57 -17 -32 -28 -41 -54 -43 -51 -5 -49 18 7 122 28 52 51
104 51 116 0 11 -22 65 -50 119 -27 54 -50 102 -50 105 0 4 21 6 46 4 42 -3
48 -6 68 -42z"/>
<path d="M1520 1435 l0 -265 78 0 77 0 0 265 0 265 -77 0 -78 0 0 -265z m118
215 c9 -25 9 -426 0 -435 -4 -4 -24 -8 -45 -9 l-38 -1 -3 220 c-1 121 0 225 2
232 3 7 21 13 41 13 26 0 38 -5 43 -20z"/>
<path d="M1821 1603 c0 -54 4 -150 8 -213 6 -98 10 -121 30 -148 29 -42 66
-60 135 -68 l56 -7 0 82 c0 78 -1 81 -23 81 -44 0 -47 14 -47 197 l0 173 -80
0 -80 0 1 -97z m129 -84 c0 -125 3 -156 17 -180 10 -16 25 -32 35 -35 14 -4
18 -16 18 -54 l0 -48 -37 5 c-46 6 -97 39 -114 73 -16 31 -22 330 -9 366 8 20
16 24 50 24 l40 0 0 -151z"/>
<path d="M2490 1436 l0 -266 80 0 80 0 0 195 0 195 24 0 c33 0 53 -25 36 -45
-7 -8 -19 -15 -26 -15 -11 0 -14 -17 -14 -69 l0 -70 33 -3 c24 -2 32 -8 32
-23 0 -15 -8 -21 -32 -23 l-33 -3 0 -71 0 -71 57 7 c107 13 160 72 150 169 -4
42 -11 56 -38 82 l-34 31 22 33 c25 37 31 103 12 144 -22 49 -62 62 -211 65
l-138 4 0 -266z m304 205 c33 -31 36 -101 6 -146 -11 -16 -20 -33 -20 -37 0
-4 15 -24 33 -44 28 -32 32 -45 32 -91 0 -49 -3 -58 -33 -84 -24 -22 -42 -29
-72 -29 -38 0 -40 2 -37 29 1 18 14 38 35 55 17 15 32 34 32 41 0 8 -16 27
-36 44 -33 27 -36 33 -31 67 3 20 13 44 22 54 20 22 19 43 -2 62 -28 24 -46
27 -75 10 l-28 -16 0 -173 c0 -95 -3 -173 -7 -174 -5 0 -19 -2 -33 -4 -62 -8
-60 -15 -60 229 0 122 3 226 8 230 4 4 60 6 124 4 107 -3 118 -5 142 -27z"/>
<path d="M1705 1410 l0 -50 48 0 47 0 0 50 0 50 -47 0 -48 0 0 -50z"/>
<path d="M1050 1095 l0 -45 195 0 195 0 0 45 c0 38 -3 45 -20 45 -13 0 -20 -7
-20 -20 0 -19 -7 -20 -155 -20 -148 0 -155 1 -155 20 0 13 -7 20 -20 20 -17 0
-20 -7 -20 -45z"/>
<path d="M1782 1119 c45 -34 145 -59 263 -65 l115 -7 0 42 c0 37 -2 41 -25 41
-16 0 -25 -6 -25 -15 0 -12 -15 -15 -72 -15 -40 0 -91 5 -113 11 -22 5 -68 13
-103 18 -62 7 -63 7 -40 -10z"/>
<path d="M2125 980 c-4 -6 -1 -18 6 -26 10 -12 10 -15 -1 -12 -9 2 -17 -12
-23 -40 -9 -48 -7 -55 16 -46 13 4 30 68 32 118 0 14 -22 19 -30 6z"/>
<path d="M2273 975 c-3 -9 -3 -19 1 -22 8 -9 37 18 30 28 -8 14 -24 11 -31 -6z"/>
<path d="M1045 928 c-6 -43 -5 -54 11 -65 24 -17 43 0 28 25 -9 13 -7 20 5 29
13 10 13 14 3 21 -7 5 -10 16 -6 25 4 12 1 17 -14 17 -17 0 -21 -9 -27 -52z"/>
<path d="M1440 951 c0 -39 -9 -61 -26 -61 -19 0 -18 16 1 24 17 6 21 36 5 36
-13 0 -60 -46 -60 -58 0 -5 9 -17 19 -26 38 -34 82 2 95 77 6 33 5 37 -14 37
-15 0 -20 -6 -20 -29z"/>
<path d="M1947 947 c-41 -35 -48 -70 -18 -87 27 -14 31 -13 31 10 0 11 -5 20
-11 20 -5 0 -7 5 -4 10 11 18 25 10 25 -14 0 -13 7 -26 15 -29 24 -10 33 62
10 79 -15 11 -16 16 -5 29 22 26 -3 16 -43 -18z"/>
<path d="M2046 933 c-4 -27 -9 -56 -12 -65 -4 -13 0 -18 14 -18 15 0 21 9 26
38 4 20 9 49 12 65 5 22 2 27 -14 27 -16 0 -21 -9 -26 -47z"/>
<path d="M700 930 c-24 -24 -25 -43 -4 -64 19 -20 34 -20 62 0 32 22 28 37 -9
29 -24 -6 -30 -4 -27 6 3 9 15 13 31 11 29 -4 34 7 15 26 -18 18 -45 15 -68
-8z"/>
<path d="M820 930 c-24 -24 -25 -43 -4 -64 18 -18 33 -20 54 -6 13 8 11 11 -7
16 -27 8 -32 44 -5 44 14 0 15 -2 2 -10 -9 -6 -10 -10 -3 -10 6 0 18 -3 27 -6
11 -4 16 0 16 13 0 43 -46 57 -80 23z"/>
<path d="M947 936 c-15 -16 -33 -74 -24 -82 11 -11 37 11 37 31 0 13 5 27 11
31 9 5 10 -3 5 -29 -6 -30 -4 -35 11 -33 14 2 18 12 18 47 0 37 -3 44 -21 47
-12 2 -28 -4 -37 -12z"/>
<path d="M1138 933 c-9 -10 -19 -33 -23 -52 -6 -29 -5 -33 10 -28 9 4 19 7 21
7 2 0 4 8 4 19 0 10 7 24 15 31 19 15 20 40 2 40 -8 0 -21 -8 -29 -17z"/>
<path d="M1212 934 c-25 -17 -29 -56 -7 -74 12 -10 21 -10 45 0 38 16 51 57
25 77 -24 17 -36 16 -63 -3z"/>
<path d="M1512 934 c-47 -33 -6 -104 44 -76 17 10 17 11 -9 21 -31 12 -32 34
-1 39 16 3 16 1 4 -7 -9 -6 -10 -11 -3 -11 6 0 18 -3 27 -6 11 -4 16 0 16 13
0 41 -39 55 -78 27z"/>
<path d="M1692 934 c-24 -17 -29 -53 -10 -72 18 -18 38 -14 38 8 0 11 -5 20
-11 20 -5 0 -7 5 -4 10 11 18 25 10 25 -14 0 -40 27 -40 35 0 10 58 -25 82
-73 48z"/>
<path d="M1818 933 c-9 -10 -19 -33 -23 -52 -6 -29 -5 -33 10 -28 9 4 19 7 21
7 2 0 4 11 4 24 0 14 5 28 12 32 8 5 9 -2 5 -24 -5 -27 -3 -32 12 -32 13 0 20
9 23 29 8 56 -31 82 -64 44z"/>
<path d="M2213 939 c-12 -4 -24 -17 -28 -28 -3 -12 -11 -21 -16 -21 -5 0 -9
-9 -9 -20 0 -11 3 -20 8 -20 15 0 52 31 52 45 0 7 5 15 11 17 6 2 10 11 8 20
-3 11 -10 13 -26 7z"/>
<path d="M2279 943 c-15 -4 -37 -79 -26 -90 14 -13 35 14 40 50 6 47 7 45 -14
40z"/>
<path d="M2353 931 c-46 -51 -60 -81 -38 -81 22 0 75 60 75 85 0 21 -16 19
-37 -4z"/>
</g>
</svg>
